# xmcd
#
# Track frame offsets:
#	150
#	15127
#	28345
#	42662
#	54785
#	66330
#	78207
#	87587
#	99530
#	112300
#	125845
#	140815
#
# Disc length: 2106 seconds
#
# Revision: 0
# Processed by: cddbd v1.5.2PL0 Copyright (c) Steve Scherf et al.
# Submitted via: audiograbber 1.83.01
#
DISCID=ab08380c
DTITLE=The Ditty Bops - Summer Rains
DYEAR=2008
DGENRE=Folk
TTITLE0=Summer Rains
TTITLE1=When's She Comin' Home
TTITLE2=Skinny Bones
TTITLE3=What Happened To The Radio
TTITLE4=The Next Best Thing
TTITLE5=Because We Do
TTITLE6=Interlude For Ten Strings
TTITLE7=I Stole Your Wishes
TTITLE8=All Over You
TTITLE9=Feel From The Outside In
TTITLE10=The Weeds Are Winning
TTITLE11=Sugar And Spice
EXTD=
EXTT0=
EXTT1=
EXTT2=
EXTT3=
EXTT4=
EXTT5=
EXTT6=
EXTT7=
EXTT8=
EXTT9=
EXTT10=
EXTT11=
PLAYORDER=
